{
  "accessors": [
    {
      "bufferView": 2,
      "componentType": 5126,
      "count": 2732,
      "max": [
        99.80267333984375,
        100,
        99.605735778808594
      ],
      "min": [
        -99.80267333984375,
        -100,
        -99.605735778808594
      ],
      "type": "VEC3"
    },
    {
      "bufferView": 2,
      "byteOffset": 32784,
      "componentType": 5126,
      "count": 2732,
      "max": [
        0.99803715944290161,
        1,
        0.99608325958251953
      ],
      "min": [
        -0.99803715944290161,
        -1,
        -0.99608325958251953
      ],
      "type": "VEC3"
    },
    {
      "bufferView": 3,
      "componentType": 5126,
      "count": 2732,
      "max": [
        1,
        0.74464321136474609,
        1,
        1
      ],
      "min": [
        -0.99872171878814697,
        -0.74464321136474609,
        -1,
        1
      ],
      "type": "VEC4"
    },
    {
      "bufferView": 1,
      "componentType": 5126,
      "count": 2732,
      "max": [
        0.9919319748878479,
        0.98943048715591431
      ],
      "min": [
        0.0080679990351200104,
        0.010569572448730469
      ],
      "type": "VEC2"
    },
    {
      "bufferView": 0,
      "componentType": 5125,
      "count": 14400,
      "max": [
        2731
      ],
      "min": [
        0
      ],
      "type": "SCALAR"
    },
    {
      "bufferView": 2,
      "byteOffset": 65568,
      "componentType": 5126,
      "count": 548,
      "max": [
        47.185966491699219,
        51.308097839355469,
        53.301734924316406
      ],
      "min": [
        -47.185966491699219,
        -51.308097839355469,
        -53.301734924316406
      ],
      "type": "VEC3"
    },
    {
      "bufferView": 2,
      "byteOffset": 72144,
      "componentType": 5126,
      "count": 548,
      "max": [
        1,
        1,
        1
      ],
      "min": [
        -1,
        -1,
        -1
      ],
      "type": "VEC3"
    },
    {
      "bufferView": 3,
      "byteOffset": 43712,
      "componentType": 5126,
      "count": 548,
      "max": [
        1,
        0.99996817111968994,
        1,
        1
      ],
      "min": [
        -1,
        -0.99996817111968994,
        -1,
        -1
      ],
      "type": "VEC4"
    },
    {
      "bufferView": 1,
      "byteOffset": 21856,
      "componentType": 5126,
      "count": 548,
      "max": [
        0.99180185794830322,
        0.99146538972854614
      ],
      "min": [
        0.0081981327384710312,
        0.0085346698760986328
      ],
      "type": "VEC2"
    },
    {
      "bufferView": 0,
      "byteOffset": 57600,
      "componentType": 5125,
      "count": 1440,
      "max": [
        547
      ],
      "min": [
        0
      ],
      "type": "SCALAR"
    },
    {
      "bufferView": 4,
      "componentType": 5126,
      "count": 181,
      "max": [
        6
      ],
      "min": [
        0
      ],
      "type": "SCALAR"
    },
    {
      "bufferView": 5,
      "componentType": 5126,
      "count": 181,
      "max": [
        1.2246467202362698e-16,
        1,
        8.5106204475637263e-17,
        1
      ],
      "min": [
        -2.1054762489987923e-17,
        -0.85781270265579224,
        -8.6594090639383346e-17,
        -0.49251940846443176
      ],
      "type": "VEC4"
    }
  ],
  "animations": [
    {
      "channels": [
        {
          "sampler": 0,
          "target": {
            "node": 8,
            "path": "rotation"
          }
        }
      ],
      "name": "CINEMA_4D_Main",
      "samplers": [
        {
          "input": 10,
          "interpolation": "LINEAR",
          "output": 11
        }
      ]
    }
  ],
  "asset": {
    "extras": {
      "author": "MAXST (https://sketchfab.com/jmjung)",
      "license": "CC-BY-NC-ND-4.0 (http://creativecommons.org/licenses/by-nc-nd/4.0/)",
      "source": "https://sketchfab.com/3d-models/server-computer-776ac2dfb73444beadac7f2c331f18ea",
      "title": "Server computer"
    },
    "generator": "Sketchfab-5.29.0",
    "version": "2.0"
  },
  "bufferViews": [
    {
      "buffer": 0,
      "byteLength": 63360,
      "byteOffset": 0,
      "name": "floatBufferViews",
      "target": 34963
    },
    {
      "buffer": 0,
      "byteLength": 26240,
      "byteOffset": 63360,
      "byteStride": 8,
      "name": "floatBufferViews",
      "target": 34962
    },
    {
      "buffer": 0,
      "byteLength": 78720,
      "byteOffset": 89600,
      "byteStride": 12,
      "name": "floatBufferViews",
      "target": 34962
    },
    {
      "buffer": 0,
      "byteLength": 52480,
      "byteOffset": 168320,
      "byteStride": 16,
      "name": "floatBufferViews",
      "target": 34962
    },
    {
      "buffer": 0,
      "byteLength": 724,
      "byteOffset": 220800,
      "name": "floatBufferViews"
    },
    {
      "buffer": 0,
      "byteLength": 2896,
      "byteOffset": 221524,
      "byteStride": 16,
      "name": "floatBufferViews"
    }
  ],
  "buffers": [
    {
      "byteLength": 224420,
      "uri": "scene.bin"
    }
  ],
  "images": [
    {
      "uri": "textures/server_sphere_baseColor.png"
    },
    {
      "uri": "textures/server_baseColor.png"
    }
  ],
  "materials": [
    {
      "alphaMode": "BLEND",
      "doubleSided": true,
      "emissiveFactor": [
        0,
        0,
        0
      ],
      "name": "server_sphere",
      "pbrMetallicRoughness": {
        "baseColorFactor": [
          1,
          1,
          1,
          0
        ],
        "baseColorTexture": {
          "index": 0,
          "texCoord": 0
        },
        "metallicFactor": 0,
        "roughnessFactor": 0.59999999999999998
      }
    },
    {
      "doubleSided": true,
      "emissiveFactor": [
        0,
        0,
        0
      ],
      "name": "server",
      "pbrMetallicRoughness": {
        "baseColorFactor": [
          1,
          1,
          1,
          1
        ],
        "baseColorTexture": {
          "index": 1,
          "texCoord": 0
        },
        "metallicFactor": 0,
        "roughnessFactor": 0.59999999999999998
      }
    }
  ],
  "meshes": [
    {
      "name": "server_sphere_server_sphere_0",
      "primitives": [
        {
          "attributes": {
            "NORMAL": 1,
            "POSITION": 0,
            "TANGENT": 2,
            "TEXCOORD_0": 3
          },
          "indices": 4,
          "material": 0,
          "mode": 4
        }
      ]
    },
    {
      "name": "server_server_0",
      "primitives": [
        {
          "attributes": {
            "NORMAL": 6,
            "POSITION": 5,
            "TANGENT": 7,
            "TEXCOORD_0": 8
          },
          "indices": 9,
          "material": 1,
          "mode": 4
        }
      ]
    }
  ],
  "nodes": [
    {
      "children": [
        1
      ],
      "name": "RootNode (gltf orientation matrix)",
      "rotation": [
        -0.70710678118654746,
        -0,
        -0,
        0.70710678118654757
      ]
    },
    {
      "children": [
        2
      ],
      "name": "RootNode (model correction matrix)"
    },
    {
      "children": [
        3
      ],
      "matrix": [
        1,
        0,
        0,
        0,
        0,
        0,
        1,
        0,
        0,
        -1,
        0,
        0,
        0,
        0,
        0,
        1
      ],
      "name": "2bbc2e37a9684a40a204cdc89ed2fbd0.fbx"
    },
    {
      "children": [
        4
      ],
      "name": ""
    },
    {
      "children": [
        5
      ],
      "name": "RootNode"
    },
    {
      "children": [
        6,
        8
      ],
      "name": "root"
    },
    {
      "children": [
        7
      ],
      "name": "server_sphere"
    },
    {
      "mesh": 0,
      "name": "server_sphere_server_sphere_0"
    },
    {
      "children": [
        9
      ],
      "name": "server",
      "rotation": [
        1.2246468525851679e-16,
        0,
        0,
        1
      ],
      "translation": [
        0,
        -3.5527136788005009e-15,
        0
      ]
    },
    {
      "mesh": 1,
      "name": "server_server_0"
    }
  ],
  "samplers": [
    {
      "magFilter": 9729,
      "minFilter": 9987,
      "wrapS": 10497,
      "wrapT": 10497
    }
  ],
  "scene": 0,
  "scenes": [
    {
      "name": "OSG_Scene",
      "nodes": [
        0
      ]
    }
  ],
  "textures": [
    {
      "sampler": 0,
      "source": 0
    },
    {
      "sampler": 0,
      "source": 1
    }
  ]
}

